<svg width="1209" height="317" viewBox="0 0 1209 317" fill="none" xmlns="http://www.w3.org/2000/svg">
<path d="M12.306 150.263C12.0263 148.86 12.0263 147.177 12.0263 145.493V56.8256C12.0263 50.6525 12.5856 45.8824 13.984 40.8317C17.6199 27.0826 24.3322 17.2618 34.4007 9.96641C43.6302 3.23215 53.1394 0.42621 66.8437 0.42621H190.183V52.8973H72.4373V149.983H190.183V202.454H55.3768C50.3425 202.454 45.0286 201.331 40.274 199.367C23.7729 192.352 13.984 177.762 12.306 150.263ZM375.235 149.983V202.454H214.139V0.42621H274.55V149.983H375.235ZM387.581 150.825C387.581 148.86 387.301 147.177 387.301 145.493V0.42621H447.712V149.983H530.218V0.42621H590.629V146.616C590.629 162.048 586.993 172.15 578.044 183.654C567.695 197.122 557.907 202.454 546.999 202.454H440.161C426.457 202.454 423.939 202.173 414.99 198.525C398.489 191.511 389.539 178.603 387.581 150.825ZM663.199 202.454V52.8973H602.788V0.42621H784.021V52.8973H723.61V202.454H663.199ZM796.45 150.263C796.171 148.86 796.171 147.177 796.171 145.493V56.8256C796.171 50.6525 796.73 45.8824 798.129 40.8317C801.764 27.0826 808.477 17.2618 818.545 9.96641C827.775 3.23215 837.284 0.42621 850.988 0.42621H974.325V52.8973H856.582V149.983H974.325V202.454H839.521C834.487 202.454 829.173 201.331 824.419 199.367C807.917 192.352 798.129 177.762 796.45 150.263ZM1058.7 120.52V202.454H998.284V0.42621H1058.7V77.0283H1136.17V0.42621H1196.57V202.454H1136.17V120.52H1058.7Z" fill="black"/>
<path d="M207.93 317C207.588 317 207.417 316.829 207.417 316.485V245.413C207.417 245.069 207.588 244.898 207.93 244.898H222.509C222.852 244.898 223.022 245.069 223.022 245.413V316.485C223.022 316.829 222.852 317 222.509 317H207.93ZM237.385 317C237.044 317 236.872 316.829 236.872 316.485V245.413C236.872 245.069 237.044 244.898 237.385 244.898H252.785C253.128 244.898 253.333 245.036 253.401 245.31L273.832 283.73H274.859V245.413C274.859 245.069 275.031 244.898 275.372 244.898H290.567C290.91 244.898 291.08 245.069 291.08 245.413V316.485C291.08 316.829 290.91 317 290.567 317H275.167C274.825 317 274.62 316.862 274.551 316.588L254.12 278.168H253.196V316.485C253.196 316.829 253.025 317 252.683 317H237.385ZM304.561 317C304.218 317 304.048 316.829 304.048 316.485V245.413C304.048 245.069 304.218 244.898 304.561 244.898H348.913C349.187 244.898 349.427 245.001 349.632 245.207L358.256 253.962C358.461 254.168 358.564 254.409 358.564 254.683V307.318C358.564 307.592 358.461 307.833 358.256 308.039L349.632 316.691C349.427 316.897 349.187 317 348.913 317H304.561ZM320.372 302.992H339.879L342.24 300.623V261.069L339.879 258.7H320.372V302.992ZM381.174 317C380.901 317 380.661 316.897 380.455 316.691L371.831 308.039C371.626 307.833 371.523 307.592 371.523 307.318V245.413C371.523 245.069 371.694 244.898 372.037 244.898H387.334C387.677 244.898 387.847 245.069 387.847 245.413V300.623L390.209 302.992H406.841L409.202 300.623V245.413C409.202 245.069 409.373 244.898 409.716 244.898H425.013C425.356 244.898 425.526 245.069 425.526 245.413V307.318C425.526 307.592 425.424 307.833 425.218 308.039L416.492 316.691C416.286 316.897 416.046 317 415.773 317H381.174ZM448.97 317C448.696 317 448.457 316.897 448.251 316.691L439.627 308.039C439.422 307.833 439.319 307.592 439.319 307.318V294.03C439.319 293.687 439.49 293.515 439.833 293.515H454.719C455.061 293.515 455.233 293.687 455.233 294.03V300.623L457.594 302.992H475.561L477.922 300.623V289.498L475.561 287.129H448.149C447.874 287.129 447.635 287.026 447.43 286.82L438.806 278.065C438.601 277.859 438.498 277.618 438.498 277.344V254.683C438.498 254.409 438.601 254.168 438.806 253.962L447.43 245.207C447.635 245.001 447.874 244.898 448.149 244.898H483.569C483.843 244.898 484.082 245.001 484.288 245.207L493.014 253.962C493.22 254.168 493.322 254.409 493.322 254.683V266.838C493.322 267.181 493.151 267.353 492.809 267.353H477.717C477.374 267.353 477.204 267.181 477.204 266.838V261.069L474.637 258.7H457.081L454.719 261.069V270.34L457.183 272.915H484.493C484.767 272.915 485.006 273.018 485.212 273.224L493.938 281.979C494.144 282.185 494.247 282.426 494.247 282.7V307.318C494.247 307.592 494.144 307.833 493.938 308.039L485.212 316.691C485.006 316.897 484.767 317 484.493 317H448.97ZM520.729 317C520.387 317 520.215 316.829 520.215 316.485V258.7H503.788C503.447 258.7 503.275 258.529 503.275 258.185V245.413C503.275 245.069 503.447 244.898 503.788 244.898H553.48C553.822 244.898 553.993 245.069 553.993 245.413V258.185C553.993 258.529 553.822 258.7 553.48 258.7H536.642V316.485C536.642 316.829 536.471 317 536.129 317H520.729ZM563.436 317C563.093 317 562.922 316.829 562.922 316.485V245.413C562.922 245.069 563.093 244.898 563.436 244.898H607.685C607.959 244.898 608.199 245.001 608.404 245.207L617.131 253.962C617.336 254.168 617.439 254.409 617.439 254.683V284.451C617.439 284.657 617.371 284.898 617.233 285.172L609.431 293.309C609.225 293.515 608.986 293.618 608.712 293.618H606.248L617.952 316.382C618.157 316.794 618.02 317 617.541 317H600.601C600.259 317 600.053 316.862 599.985 316.588L588.486 294.03H579.246V316.485C579.246 316.829 579.076 317 578.733 317H563.436ZM579.246 279.713H598.651L601.012 277.344V261.069L598.651 258.7H579.246V279.713ZM632.036 317C631.694 317 631.523 316.829 631.523 316.485V245.413C631.523 245.069 631.694 244.898 632.036 244.898H646.615C646.957 244.898 647.128 245.069 647.128 245.413V316.485C647.128 316.829 646.957 317 646.615 317H632.036ZM661.491 317C661.149 317 660.978 316.829 660.978 316.485V245.413C660.978 245.069 661.149 244.898 661.491 244.898H708.308C708.65 244.898 708.821 245.069 708.821 245.413V258.185C708.821 258.529 708.65 258.7 708.308 258.7H677.405V273.842H700.916C701.258 273.842 701.429 274.013 701.429 274.357V287.129C701.429 287.473 701.258 287.644 700.916 287.644H677.405V302.992H710.977C711.25 302.992 711.388 303.163 711.388 303.507L709.642 316.485C709.642 316.829 709.437 317 709.026 317H661.491ZM734.414 317C734.14 317 733.901 316.897 733.696 316.691L725.072 308.039C724.866 307.833 724.764 307.592 724.764 307.318V294.03C724.764 293.687 724.934 293.515 725.277 293.515H740.164C740.505 293.515 740.677 293.687 740.677 294.03V300.623L743.038 302.992H761.005L763.367 300.623V289.498L761.005 287.129H733.593C733.319 287.129 733.08 287.026 732.874 286.82L724.25 278.065C724.045 277.859 723.942 277.618 723.942 277.344V254.683C723.942 254.409 724.045 254.168 724.25 253.962L732.874 245.207C733.08 245.001 733.319 244.898 733.593 244.898H769.013C769.287 244.898 769.527 245.001 769.732 245.207L778.459 253.962C778.664 254.168 778.767 254.409 778.767 254.683V266.838C778.767 267.181 778.595 267.353 778.254 267.353H763.161C762.819 267.353 762.648 267.181 762.648 266.838V261.069L760.081 258.7H742.525L740.164 261.069V270.34L742.628 272.915H769.937C770.211 272.915 770.451 273.018 770.656 273.224L779.383 281.979C779.588 282.185 779.691 282.426 779.691 282.7V307.318C779.691 307.592 779.588 307.833 779.383 308.039L770.656 316.691C770.451 316.897 770.211 317 769.937 317H734.414ZM830.955 317C830.612 317 830.441 316.829 830.441 316.485V245.413C830.441 245.069 830.612 244.898 830.955 244.898H845.534C845.875 244.898 846.047 245.069 846.047 245.413V316.485C846.047 316.829 845.875 317 845.534 317H830.955ZM860.41 317C860.067 317 859.896 316.829 859.896 316.485V245.413C859.896 245.069 860.067 244.898 860.41 244.898H875.81C876.152 244.898 876.358 245.036 876.426 245.31L896.855 283.73H897.882V245.413C897.882 245.069 898.059 244.898 898.395 244.898H913.592C913.937 244.898 914.105 245.069 914.105 245.413V316.485C914.105 316.829 913.937 317 913.592 317H898.191C897.846 317 897.643 316.862 897.572 316.588L877.145 278.168H876.221V316.485C876.221 316.829 876.05 317 875.707 317H860.41ZM936.718 317C936.453 317 936.205 316.897 936.001 316.691L927.381 308.039C927.177 307.833 927.071 307.592 927.071 307.318V254.683C927.071 254.409 927.177 254.168 927.381 253.962L936.001 245.207C936.205 245.001 936.453 244.898 936.718 244.898H972.448C972.723 244.898 972.962 245.001 973.165 245.207L981.795 253.962C981.998 254.168 982.105 254.409 982.105 254.683V270.134C982.105 270.477 981.928 270.649 981.591 270.649H966.288C965.952 270.649 965.775 270.477 965.775 270.134V261.069L963.412 258.7H945.861L943.498 261.069V300.726L945.861 303.095H963.412L965.775 300.726V290.116C965.775 289.773 965.952 289.601 966.288 289.601H981.591C981.928 289.601 982.105 289.773 982.105 290.116V307.318C982.105 307.592 981.998 307.833 981.795 308.039L973.272 316.691C973.068 316.897 972.829 317 972.555 317H936.718ZM993.097 317C992.752 317 992.584 316.829 992.584 316.485V305.258C992.584 304.914 992.752 304.743 993.097 304.743H1004.5C1004.83 304.743 1005.01 304.914 1005.01 305.258V316.485C1005.01 316.829 1004.83 317 1004.5 317H993.097Z" fill="#3A4AAA"/>
</svg>
